<mxfile host="app.diagrams.net" agent="Mozilla/5.0 (Windows NT 10.0; Win64; x64) AppleWebKit/537.36 (KHTML, like Gecko) Chrome/128.0.0.0 Safari/537.36" version="24.7.10">
  <diagram id="R2lEEEUBdFMjLlhIrx00" name="Page-1">
    <mxGraphModel dx="794" dy="454" grid="1" gridSize="10" guides="1" tooltips="1" connect="1" arrows="1" fold="1" page="1" pageScale="1" pageWidth="850" pageHeight="1100" math="0" shadow="0" extFonts="Permanent Marker^https://fonts.googleapis.com/css?family=Permanent+Marker">
      <root>
        <mxCell id="0" />
        <mxCell id="1" parent="0" />
        <mxCell id="VhhlfXbD_9GwfbsZCxs5-2" value="Route" style="rounded=0;whiteSpace=wrap;html=1;fillColor=#008a00;fontColor=#ffffff;strokeColor=#005700;" parent="1" vertex="1">
          <mxGeometry x="280" y="160" width="120" height="60" as="geometry" />
        </mxCell>
        <mxCell id="VhhlfXbD_9GwfbsZCxs5-3" value="&lt;u&gt;route_id (Long)&lt;/u&gt;" style="ellipse;whiteSpace=wrap;html=1;fillColor=#d5e8d4;strokeColor=#82b366;" parent="1" vertex="1">
          <mxGeometry x="120" y="260" width="90" height="40" as="geometry" />
        </mxCell>
        <mxCell id="VhhlfXbD_9GwfbsZCxs5-4" value="name(String-not null)" style="ellipse;whiteSpace=wrap;html=1;fillColor=#d5e8d4;strokeColor=#82b366;" parent="1" vertex="1">
          <mxGeometry x="10" y="260" width="100" height="40" as="geometry" />
        </mxCell>
        <mxCell id="VhhlfXbD_9GwfbsZCxs5-5" value="description(String)" style="ellipse;whiteSpace=wrap;html=1;fillColor=#d5e8d4;strokeColor=#82b366;" parent="1" vertex="1">
          <mxGeometry x="10" y="210" width="120" height="40" as="geometry" />
        </mxCell>
        <mxCell id="VhhlfXbD_9GwfbsZCxs5-6" value="starting_point(String)" style="ellipse;whiteSpace=wrap;html=1;fillColor=#d5e8d4;strokeColor=#82b366;" parent="1" vertex="1">
          <mxGeometry x="10" y="160" width="140" height="40" as="geometry" />
        </mxCell>
        <mxCell id="VhhlfXbD_9GwfbsZCxs5-10" value="area(String, default Malaga)" style="ellipse;whiteSpace=wrap;html=1;fillColor=#d5e8d4;strokeColor=#82b366;" parent="1" vertex="1">
          <mxGeometry x="365" y="10" width="170" height="40" as="geometry" />
        </mxCell>
        <mxCell id="VhhlfXbD_9GwfbsZCxs5-12" value="" style="endArrow=none;html=1;rounded=0;exitX=1;exitY=0;exitDx=0;exitDy=0;entryX=0;entryY=0.5;entryDx=0;entryDy=0;" parent="1" source="VhhlfXbD_9GwfbsZCxs5-4" target="VhhlfXbD_9GwfbsZCxs5-2" edge="1">
          <mxGeometry width="50" height="50" relative="1" as="geometry">
            <mxPoint x="400" y="100" as="sourcePoint" />
            <mxPoint x="450" y="50" as="targetPoint" />
          </mxGeometry>
        </mxCell>
        <mxCell id="VhhlfXbD_9GwfbsZCxs5-13" value="" style="endArrow=none;html=1;rounded=0;exitX=1;exitY=0.5;exitDx=0;exitDy=0;entryX=0;entryY=0.5;entryDx=0;entryDy=0;" parent="1" source="VhhlfXbD_9GwfbsZCxs5-5" target="VhhlfXbD_9GwfbsZCxs5-2" edge="1">
          <mxGeometry width="50" height="50" relative="1" as="geometry">
            <mxPoint x="400" y="100" as="sourcePoint" />
            <mxPoint x="360" y="160" as="targetPoint" />
          </mxGeometry>
        </mxCell>
        <mxCell id="VhhlfXbD_9GwfbsZCxs5-14" value="" style="endArrow=none;html=1;rounded=0;exitX=1;exitY=0.5;exitDx=0;exitDy=0;" parent="1" source="VhhlfXbD_9GwfbsZCxs5-6" target="VhhlfXbD_9GwfbsZCxs5-2" edge="1">
          <mxGeometry width="50" height="50" relative="1" as="geometry">
            <mxPoint x="400" y="100" as="sourcePoint" />
            <mxPoint x="450" y="50" as="targetPoint" />
          </mxGeometry>
        </mxCell>
        <mxCell id="VhhlfXbD_9GwfbsZCxs5-17" value="" style="endArrow=none;html=1;rounded=0;entryX=0.5;entryY=1;entryDx=0;entryDy=0;exitX=0.75;exitY=0;exitDx=0;exitDy=0;" parent="1" source="VhhlfXbD_9GwfbsZCxs5-2" target="VhhlfXbD_9GwfbsZCxs5-10" edge="1">
          <mxGeometry width="50" height="50" relative="1" as="geometry">
            <mxPoint x="400" y="100" as="sourcePoint" />
            <mxPoint x="450" y="50" as="targetPoint" />
            <Array as="points" />
          </mxGeometry>
        </mxCell>
        <mxCell id="VhhlfXbD_9GwfbsZCxs5-18" value="" style="endArrow=none;html=1;rounded=0;exitX=0.5;exitY=0;exitDx=0;exitDy=0;entryX=0;entryY=0.75;entryDx=0;entryDy=0;" parent="1" source="VhhlfXbD_9GwfbsZCxs5-3" target="VhhlfXbD_9GwfbsZCxs5-2" edge="1">
          <mxGeometry width="50" height="50" relative="1" as="geometry">
            <mxPoint x="400" y="100" as="sourcePoint" />
            <mxPoint x="450" y="50" as="targetPoint" />
          </mxGeometry>
        </mxCell>
        <mxCell id="VhhlfXbD_9GwfbsZCxs5-19" value="Meeting" style="rhombus;whiteSpace=wrap;html=1;fillColor=#a20025;fontColor=#ffffff;strokeColor=#6F0000;" parent="1" vertex="1">
          <mxGeometry x="300" y="300" width="80" height="80" as="geometry" />
        </mxCell>
        <mxCell id="VhhlfXbD_9GwfbsZCxs5-20" value="Date (LocalDateTime, default CURRENT_TIMESTAMP)" style="ellipse;whiteSpace=wrap;html=1;fillColor=#ffe6cc;strokeColor=#d79b00;" parent="1" vertex="1">
          <mxGeometry x="435" y="350" width="210" height="40" as="geometry" />
        </mxCell>
        <mxCell id="VhhlfXbD_9GwfbsZCxs5-26" value="" style="endArrow=none;html=1;rounded=0;exitX=1;exitY=0.5;exitDx=0;exitDy=0;entryX=0;entryY=0.5;entryDx=0;entryDy=0;" parent="1" source="VhhlfXbD_9GwfbsZCxs5-19" target="VhhlfXbD_9GwfbsZCxs5-20" edge="1">
          <mxGeometry width="50" height="50" relative="1" as="geometry">
            <mxPoint x="400" y="420" as="sourcePoint" />
            <mxPoint x="440" y="420" as="targetPoint" />
            <Array as="points" />
          </mxGeometry>
        </mxCell>
        <mxCell id="VhhlfXbD_9GwfbsZCxs5-32" value="" style="endArrow=none;html=1;rounded=0;entryX=0.5;entryY=0;entryDx=0;entryDy=0;exitX=0.5;exitY=1;exitDx=0;exitDy=0;" parent="1" source="VhhlfXbD_9GwfbsZCxs5-2" target="VhhlfXbD_9GwfbsZCxs5-19" edge="1">
          <mxGeometry width="50" height="50" relative="1" as="geometry">
            <mxPoint x="400" y="100" as="sourcePoint" />
            <mxPoint x="450" y="50" as="targetPoint" />
          </mxGeometry>
        </mxCell>
        <mxCell id="VhhlfXbD_9GwfbsZCxs5-33" value="(0,N)" style="text;strokeColor=none;fillColor=none;html=1;fontSize=24;fontStyle=1;verticalAlign=middle;align=center;fontFamily=Helvetica;fontColor=default;" parent="1" vertex="1">
          <mxGeometry x="325" y="394" width="100" height="40" as="geometry" />
        </mxCell>
        <mxCell id="VhhlfXbD_9GwfbsZCxs5-35" value="N:M" style="text;strokeColor=none;fillColor=none;html=1;fontSize=24;fontStyle=1;verticalAlign=middle;align=center;" parent="1" vertex="1">
          <mxGeometry x="216.25" y="320" width="100" height="40" as="geometry" />
        </mxCell>
        <mxCell id="VhhlfXbD_9GwfbsZCxs5-36" value="User" style="rounded=0;whiteSpace=wrap;html=1;fillColor=#1ba1e2;fontColor=#ffffff;strokeColor=#006EAF;" parent="1" vertex="1">
          <mxGeometry x="285" y="434" width="110" height="50" as="geometry" />
        </mxCell>
        <mxCell id="VhhlfXbD_9GwfbsZCxs5-37" value="" style="endArrow=none;html=1;rounded=0;exitX=0.5;exitY=0;exitDx=0;exitDy=0;entryX=0.5;entryY=1;entryDx=0;entryDy=0;entryPerimeter=0;" parent="1" source="VhhlfXbD_9GwfbsZCxs5-36" target="VhhlfXbD_9GwfbsZCxs5-19" edge="1">
          <mxGeometry width="50" height="50" relative="1" as="geometry">
            <mxPoint x="410" y="480" as="sourcePoint" />
            <mxPoint x="370" y="380" as="targetPoint" />
          </mxGeometry>
        </mxCell>
        <mxCell id="VhhlfXbD_9GwfbsZCxs5-38" value="(0,N)" style="text;strokeColor=none;fillColor=none;html=1;fontSize=24;fontStyle=1;verticalAlign=middle;align=center;fontFamily=Helvetica;fontColor=default;" parent="1" vertex="1">
          <mxGeometry x="340" y="250" width="100" height="40" as="geometry" />
        </mxCell>
        <mxCell id="VhhlfXbD_9GwfbsZCxs5-39" value="&lt;span&gt;username(String)&lt;/span&gt;" style="ellipse;whiteSpace=wrap;html=1;fillColor=#dae8fc;strokeColor=#6c8ebf;fontStyle=0" parent="1" vertex="1">
          <mxGeometry x="210" y="380" width="100" height="40" as="geometry" />
        </mxCell>
        <mxCell id="VhhlfXbD_9GwfbsZCxs5-40" value="password(String-notNull)" style="ellipse;whiteSpace=wrap;html=1;fillColor=#dae8fc;strokeColor=#6c8ebf;" parent="1" vertex="1">
          <mxGeometry x="90" y="380" width="110" height="40" as="geometry" />
        </mxCell>
        <mxCell id="VhhlfXbD_9GwfbsZCxs5-43" value="email(String)" style="ellipse;whiteSpace=wrap;html=1;fillColor=#dae8fc;strokeColor=#6c8ebf;" parent="1" vertex="1">
          <mxGeometry x="10" y="420" width="105" height="45" as="geometry" />
        </mxCell>
        <mxCell id="VhhlfXbD_9GwfbsZCxs5-44" value="icon(String)" style="ellipse;whiteSpace=wrap;html=1;align=center;fillColor=#dae8fc;strokeColor=#6c8ebf;" parent="1" vertex="1">
          <mxGeometry x="10" y="470" width="100" height="40" as="geometry" />
        </mxCell>
        <mxCell id="VhhlfXbD_9GwfbsZCxs5-49" value="" style="endArrow=none;html=1;rounded=0;entryX=0;entryY=0;entryDx=0;entryDy=0;exitX=0.5;exitY=1;exitDx=0;exitDy=0;" parent="1" source="VhhlfXbD_9GwfbsZCxs5-39" target="VhhlfXbD_9GwfbsZCxs5-36" edge="1">
          <mxGeometry width="50" height="50" relative="1" as="geometry">
            <mxPoint x="425" y="420" as="sourcePoint" />
            <mxPoint x="475" y="370" as="targetPoint" />
          </mxGeometry>
        </mxCell>
        <mxCell id="VhhlfXbD_9GwfbsZCxs5-50" value="" style="endArrow=none;html=1;rounded=0;exitX=1;exitY=1;exitDx=0;exitDy=0;entryX=0;entryY=0.25;entryDx=0;entryDy=0;" parent="1" source="VhhlfXbD_9GwfbsZCxs5-40" target="VhhlfXbD_9GwfbsZCxs5-36" edge="1">
          <mxGeometry width="50" height="50" relative="1" as="geometry">
            <mxPoint x="425" y="420" as="sourcePoint" />
            <mxPoint x="475" y="370" as="targetPoint" />
          </mxGeometry>
        </mxCell>
        <mxCell id="VhhlfXbD_9GwfbsZCxs5-51" value="" style="endArrow=none;html=1;rounded=0;entryX=0;entryY=0.5;entryDx=0;entryDy=0;exitX=1;exitY=0.5;exitDx=0;exitDy=0;" parent="1" source="VhhlfXbD_9GwfbsZCxs5-43" target="VhhlfXbD_9GwfbsZCxs5-36" edge="1">
          <mxGeometry width="50" height="50" relative="1" as="geometry">
            <mxPoint x="425" y="420" as="sourcePoint" />
            <mxPoint x="475" y="370" as="targetPoint" />
          </mxGeometry>
        </mxCell>
        <mxCell id="VhhlfXbD_9GwfbsZCxs5-52" value="" style="endArrow=none;html=1;rounded=0;exitX=1;exitY=0.5;exitDx=0;exitDy=0;entryX=0;entryY=0.5;entryDx=0;entryDy=0;" parent="1" source="VhhlfXbD_9GwfbsZCxs5-44" target="VhhlfXbD_9GwfbsZCxs5-36" edge="1">
          <mxGeometry width="50" height="50" relative="1" as="geometry">
            <mxPoint x="425" y="420" as="sourcePoint" />
            <mxPoint x="475" y="370" as="targetPoint" />
          </mxGeometry>
        </mxCell>
        <mxCell id="VhhlfXbD_9GwfbsZCxs5-61" value="difficulty(Byte, default 1)" style="ellipse;whiteSpace=wrap;html=1;fillColor=#d5e8d4;strokeColor=#82b366;" parent="1" vertex="1">
          <mxGeometry x="10" y="110" width="170" height="40" as="geometry" />
        </mxCell>
        <mxCell id="VhhlfXbD_9GwfbsZCxs5-62" value="distance(Int, default 0)" style="ellipse;whiteSpace=wrap;html=1;fillColor=#d5e8d4;strokeColor=#82b366;" parent="1" vertex="1">
          <mxGeometry x="10" y="60" width="170" height="40" as="geometry" />
        </mxCell>
        <mxCell id="VhhlfXbD_9GwfbsZCxs5-64" value="" style="endArrow=none;html=1;rounded=0;exitX=0;exitY=0.25;exitDx=0;exitDy=0;entryX=1;entryY=0.5;entryDx=0;entryDy=0;" parent="1" source="VhhlfXbD_9GwfbsZCxs5-2" target="VhhlfXbD_9GwfbsZCxs5-61" edge="1">
          <mxGeometry width="50" height="50" relative="1" as="geometry">
            <mxPoint x="430" y="420" as="sourcePoint" />
            <mxPoint x="680" y="60" as="targetPoint" />
          </mxGeometry>
        </mxCell>
        <mxCell id="VhhlfXbD_9GwfbsZCxs5-65" value="" style="endArrow=none;html=1;rounded=0;entryX=1;entryY=0.5;entryDx=0;entryDy=0;exitX=0;exitY=0;exitDx=0;exitDy=0;" parent="1" source="VhhlfXbD_9GwfbsZCxs5-2" target="VhhlfXbD_9GwfbsZCxs5-62" edge="1">
          <mxGeometry width="50" height="50" relative="1" as="geometry">
            <mxPoint x="430" y="420" as="sourcePoint" />
            <mxPoint x="480" y="370" as="targetPoint" />
          </mxGeometry>
        </mxCell>
        <mxCell id="VhhlfXbD_9GwfbsZCxs5-67" value="p_country(String, default Spain)" style="ellipse;whiteSpace=wrap;html=1;fillColor=#dae8fc;strokeColor=#6c8ebf;" parent="1" vertex="1">
          <mxGeometry x="10" y="620" width="190" height="38" as="geometry" />
        </mxCell>
        <mxCell id="VhhlfXbD_9GwfbsZCxs5-68" value="p_province (String,default Malaga)" style="ellipse;whiteSpace=wrap;html=1;fillColor=#dae8fc;strokeColor=#6c8ebf;" parent="1" vertex="1">
          <mxGeometry x="210" y="620" width="165" height="40" as="geometry" />
        </mxCell>
        <mxCell id="VhhlfXbD_9GwfbsZCxs5-69" value="p_area(String, default Malaga)" style="ellipse;whiteSpace=wrap;html=1;fillColor=#dae8fc;strokeColor=#6c8ebf;" parent="1" vertex="1">
          <mxGeometry x="380" y="620" width="140" height="40" as="geometry" />
        </mxCell>
        <mxCell id="VhhlfXbD_9GwfbsZCxs5-70" value="p_difficulty(Byte, default 1)" style="ellipse;whiteSpace=wrap;html=1;fillColor=#dae8fc;strokeColor=#6c8ebf;" parent="1" vertex="1">
          <mxGeometry x="10" y="520" width="160" height="40" as="geometry" />
        </mxCell>
        <mxCell id="VhhlfXbD_9GwfbsZCxs5-71" value="p_distanceApprox(Int, default 0)" style="ellipse;whiteSpace=wrap;html=1;fillColor=#dae8fc;strokeColor=#6c8ebf;" parent="1" vertex="1">
          <mxGeometry x="10" y="570" width="170" height="40" as="geometry" />
        </mxCell>
        <mxCell id="VhhlfXbD_9GwfbsZCxs5-73" value="" style="endArrow=none;html=1;rounded=0;exitX=0;exitY=1;exitDx=0;exitDy=0;entryX=1;entryY=0;entryDx=0;entryDy=0;" parent="1" source="VhhlfXbD_9GwfbsZCxs5-36" target="VhhlfXbD_9GwfbsZCxs5-67" edge="1">
          <mxGeometry width="50" height="50" relative="1" as="geometry">
            <mxPoint x="525" y="550" as="sourcePoint" />
            <mxPoint x="505" y="460" as="targetPoint" />
          </mxGeometry>
        </mxCell>
        <mxCell id="VhhlfXbD_9GwfbsZCxs5-74" value="" style="endArrow=none;html=1;rounded=0;entryX=0.5;entryY=0;entryDx=0;entryDy=0;" parent="1" target="VhhlfXbD_9GwfbsZCxs5-68" edge="1">
          <mxGeometry width="50" height="50" relative="1" as="geometry">
            <mxPoint x="340" y="484" as="sourcePoint" />
            <mxPoint x="575" y="500" as="targetPoint" />
          </mxGeometry>
        </mxCell>
        <mxCell id="VhhlfXbD_9GwfbsZCxs5-75" value="" style="endArrow=none;html=1;rounded=0;exitX=0;exitY=0.75;exitDx=0;exitDy=0;" parent="1" source="VhhlfXbD_9GwfbsZCxs5-36" target="VhhlfXbD_9GwfbsZCxs5-70" edge="1">
          <mxGeometry width="50" height="50" relative="1" as="geometry">
            <mxPoint x="525" y="550" as="sourcePoint" />
            <mxPoint x="575" y="500" as="targetPoint" />
          </mxGeometry>
        </mxCell>
        <mxCell id="VhhlfXbD_9GwfbsZCxs5-76" value="" style="endArrow=none;html=1;rounded=0;exitX=0;exitY=0.75;exitDx=0;exitDy=0;entryX=1;entryY=0;entryDx=0;entryDy=0;" parent="1" source="VhhlfXbD_9GwfbsZCxs5-36" target="VhhlfXbD_9GwfbsZCxs5-71" edge="1">
          <mxGeometry width="50" height="50" relative="1" as="geometry">
            <mxPoint x="525" y="550" as="sourcePoint" />
            <mxPoint x="575" y="500" as="targetPoint" />
          </mxGeometry>
        </mxCell>
        <mxCell id="VhhlfXbD_9GwfbsZCxs5-78" value="" style="endArrow=none;html=1;rounded=0;entryX=0.429;entryY=0;entryDx=0;entryDy=0;entryPerimeter=0;exitX=0.5;exitY=1;exitDx=0;exitDy=0;" parent="1" source="VhhlfXbD_9GwfbsZCxs5-36" target="VhhlfXbD_9GwfbsZCxs5-69" edge="1">
          <mxGeometry width="50" height="50" relative="1" as="geometry">
            <mxPoint x="405" y="500" as="sourcePoint" />
            <mxPoint x="575" y="500" as="targetPoint" />
          </mxGeometry>
        </mxCell>
        <mxCell id="y-Zri_72ltUfMswz9wSq-1" value="url_resources(String)" style="ellipse;whiteSpace=wrap;html=1;fillColor=#d5e8d4;strokeColor=#82b366;" parent="1" vertex="1">
          <mxGeometry x="216.25" y="260" width="117.5" height="40" as="geometry" />
        </mxCell>
        <mxCell id="y-Zri_72ltUfMswz9wSq-5" value="" style="endArrow=none;html=1;rounded=0;exitX=0.5;exitY=0;exitDx=0;exitDy=0;entryX=0;entryY=1;entryDx=0;entryDy=0;" parent="1" source="y-Zri_72ltUfMswz9wSq-1" target="VhhlfXbD_9GwfbsZCxs5-2" edge="1">
          <mxGeometry width="50" height="50" relative="1" as="geometry">
            <mxPoint x="400" y="420" as="sourcePoint" />
            <mxPoint x="450" y="370" as="targetPoint" />
          </mxGeometry>
        </mxCell>
        <mxCell id="ZBdlJ3Y1Z_AJrLMAYwne-20" value="province(String, default Malaga)" style="ellipse;whiteSpace=wrap;html=1;fillColor=#d5e8d4;strokeColor=#82b366;" parent="1" vertex="1">
          <mxGeometry x="190" y="10" width="170" height="40" as="geometry" />
        </mxCell>
        <mxCell id="ZBdlJ3Y1Z_AJrLMAYwne-21" value="country(String, default Spain)" style="ellipse;whiteSpace=wrap;html=1;fillColor=#d5e8d4;strokeColor=#82b366;" parent="1" vertex="1">
          <mxGeometry x="10" y="10" width="170" height="40" as="geometry" />
        </mxCell>
        <mxCell id="ZBdlJ3Y1Z_AJrLMAYwne-24" value="" style="endArrow=none;html=1;rounded=0;entryX=0.5;entryY=1;entryDx=0;entryDy=0;exitX=0.5;exitY=0;exitDx=0;exitDy=0;" parent="1" source="VhhlfXbD_9GwfbsZCxs5-2" target="ZBdlJ3Y1Z_AJrLMAYwne-20" edge="1">
          <mxGeometry width="50" height="50" relative="1" as="geometry">
            <mxPoint x="400" y="420" as="sourcePoint" />
            <mxPoint x="450" y="370" as="targetPoint" />
          </mxGeometry>
        </mxCell>
        <mxCell id="ZBdlJ3Y1Z_AJrLMAYwne-25" value="" style="endArrow=none;html=1;rounded=0;entryX=1;entryY=0.5;entryDx=0;entryDy=0;exitX=0.25;exitY=0;exitDx=0;exitDy=0;" parent="1" source="VhhlfXbD_9GwfbsZCxs5-2" target="ZBdlJ3Y1Z_AJrLMAYwne-21" edge="1">
          <mxGeometry width="50" height="50" relative="1" as="geometry">
            <mxPoint x="400" y="420" as="sourcePoint" />
            <mxPoint x="450" y="370" as="targetPoint" />
          </mxGeometry>
        </mxCell>
        <mxCell id="EuwvSS6BPNqvcAyoWzLB-1" value="user_id" style="ellipse;whiteSpace=wrap;html=1;fontStyle=4;fillColor=#dae8fc;strokeColor=#6c8ebf;" parent="1" vertex="1">
          <mxGeometry x="10" y="385" width="76" height="30" as="geometry" />
        </mxCell>
        <mxCell id="EuwvSS6BPNqvcAyoWzLB-2" value="" style="endArrow=none;html=1;rounded=0;exitX=0;exitY=0.25;exitDx=0;exitDy=0;entryX=1;entryY=1;entryDx=0;entryDy=0;" parent="1" source="VhhlfXbD_9GwfbsZCxs5-36" target="EuwvSS6BPNqvcAyoWzLB-1" edge="1">
          <mxGeometry width="50" height="50" relative="1" as="geometry">
            <mxPoint x="590" y="450" as="sourcePoint" />
            <mxPoint x="640" y="400" as="targetPoint" />
          </mxGeometry>
        </mxCell>
        <mxCell id="kOafwiNzkJEgBsT5kWZ8-1" value="&lt;u&gt;Id&lt;/u&gt;" style="ellipse;whiteSpace=wrap;html=1;fillColor=#ffe6cc;strokeColor=#d79b00;" parent="1" vertex="1">
          <mxGeometry x="440" y="300" width="50" height="40" as="geometry" />
        </mxCell>
        <mxCell id="kOafwiNzkJEgBsT5kWZ8-2" value="" style="endArrow=none;html=1;rounded=0;entryX=0;entryY=0.5;entryDx=0;entryDy=0;exitX=1;exitY=0.5;exitDx=0;exitDy=0;" parent="1" source="VhhlfXbD_9GwfbsZCxs5-19" target="kOafwiNzkJEgBsT5kWZ8-1" edge="1">
          <mxGeometry width="50" height="50" relative="1" as="geometry">
            <mxPoint x="400" y="420" as="sourcePoint" />
            <mxPoint x="450" y="370" as="targetPoint" />
          </mxGeometry>
        </mxCell>
        <mxCell id="yaVa793RjvjRcYHjHZCJ-1" value="characteristics" style="ellipse;shape=doubleEllipse;whiteSpace=wrap;html=1;fillColor=#d5e8d4;strokeColor=#82b366;" vertex="1" parent="1">
          <mxGeometry x="425" y="140" width="140" height="40" as="geometry" />
        </mxCell>
        <mxCell id="yaVa793RjvjRcYHjHZCJ-2" value="circular (boolean)" style="ellipse;whiteSpace=wrap;html=1;fillColor=#d5e8d4;strokeColor=#82b366;" vertex="1" parent="1">
          <mxGeometry x="460" y="70" width="92.5" height="40" as="geometry" />
        </mxCell>
        <mxCell id="yaVa793RjvjRcYHjHZCJ-3" value="swimming_area (boolean)" style="ellipse;whiteSpace=wrap;html=1;fillColor=#d5e8d4;strokeColor=#82b366;" vertex="1" parent="1">
          <mxGeometry x="740" y="80" width="92.5" height="40" as="geometry" />
        </mxCell>
        <mxCell id="yaVa793RjvjRcYHjHZCJ-4" value="photographic_view (boolean)" style="ellipse;whiteSpace=wrap;html=1;fillColor=#d5e8d4;strokeColor=#82b366;" vertex="1" parent="1">
          <mxGeometry x="670" y="230" width="120" height="40" as="geometry" />
        </mxCell>
        <mxCell id="yaVa793RjvjRcYHjHZCJ-5" value="climb_path (boolean)" style="ellipse;whiteSpace=wrap;html=1;fillColor=#d5e8d4;strokeColor=#82b366;" vertex="1" parent="1">
          <mxGeometry x="560" y="40" width="120" height="40" as="geometry" />
        </mxCell>
        <mxCell id="yaVa793RjvjRcYHjHZCJ-6" value="kid_friendly (boolean)" style="ellipse;whiteSpace=wrap;html=1;fillColor=#d5e8d4;strokeColor=#82b366;" vertex="1" parent="1">
          <mxGeometry x="712.5" y="130" width="120" height="40" as="geometry" />
        </mxCell>
        <mxCell id="yaVa793RjvjRcYHjHZCJ-7" value="will_not_get_wet (boolean)" style="ellipse;whiteSpace=wrap;html=1;fillColor=#d5e8d4;strokeColor=#82b366;" vertex="1" parent="1">
          <mxGeometry x="432.5" y="210" width="120" height="40" as="geometry" />
        </mxCell>
        <mxCell id="yaVa793RjvjRcYHjHZCJ-8" value="" style="endArrow=none;html=1;rounded=0;entryX=1;entryY=0;entryDx=0;entryDy=0;exitX=0.5;exitY=1;exitDx=0;exitDy=0;" edge="1" parent="1" source="yaVa793RjvjRcYHjHZCJ-2" target="yaVa793RjvjRcYHjHZCJ-1">
          <mxGeometry width="50" height="50" relative="1" as="geometry">
            <mxPoint x="740" y="180" as="sourcePoint" />
            <mxPoint x="790" y="130" as="targetPoint" />
          </mxGeometry>
        </mxCell>
        <mxCell id="yaVa793RjvjRcYHjHZCJ-9" value="" style="endArrow=none;html=1;rounded=0;entryX=0;entryY=0.5;entryDx=0;entryDy=0;exitX=1;exitY=0.5;exitDx=0;exitDy=0;" edge="1" parent="1" source="yaVa793RjvjRcYHjHZCJ-1" target="yaVa793RjvjRcYHjHZCJ-3">
          <mxGeometry width="50" height="50" relative="1" as="geometry">
            <mxPoint x="740" y="180" as="sourcePoint" />
            <mxPoint x="790" y="130" as="targetPoint" />
          </mxGeometry>
        </mxCell>
        <mxCell id="yaVa793RjvjRcYHjHZCJ-10" value="" style="endArrow=none;html=1;rounded=0;entryX=1;entryY=0.5;entryDx=0;entryDy=0;exitX=0;exitY=0.5;exitDx=0;exitDy=0;" edge="1" parent="1" source="yaVa793RjvjRcYHjHZCJ-6" target="yaVa793RjvjRcYHjHZCJ-1">
          <mxGeometry width="50" height="50" relative="1" as="geometry">
            <mxPoint x="740" y="180" as="sourcePoint" />
            <mxPoint x="790" y="130" as="targetPoint" />
          </mxGeometry>
        </mxCell>
        <mxCell id="yaVa793RjvjRcYHjHZCJ-11" value="" style="endArrow=none;html=1;rounded=0;entryX=1;entryY=1;entryDx=0;entryDy=0;exitX=0.5;exitY=0;exitDx=0;exitDy=0;" edge="1" parent="1" source="yaVa793RjvjRcYHjHZCJ-7" target="yaVa793RjvjRcYHjHZCJ-1">
          <mxGeometry width="50" height="50" relative="1" as="geometry">
            <mxPoint x="740" y="180" as="sourcePoint" />
            <mxPoint x="790" y="130" as="targetPoint" />
          </mxGeometry>
        </mxCell>
        <mxCell id="yaVa793RjvjRcYHjHZCJ-12" value="" style="endArrow=none;html=1;rounded=0;entryX=1;entryY=0;entryDx=0;entryDy=0;exitX=0.5;exitY=1;exitDx=0;exitDy=0;" edge="1" parent="1" source="yaVa793RjvjRcYHjHZCJ-5" target="yaVa793RjvjRcYHjHZCJ-1">
          <mxGeometry width="50" height="50" relative="1" as="geometry">
            <mxPoint x="740" y="180" as="sourcePoint" />
            <mxPoint x="790" y="130" as="targetPoint" />
          </mxGeometry>
        </mxCell>
        <mxCell id="yaVa793RjvjRcYHjHZCJ-13" value="" style="endArrow=none;html=1;rounded=0;entryX=1;entryY=0.5;entryDx=0;entryDy=0;exitX=0;exitY=0;exitDx=0;exitDy=0;" edge="1" parent="1" source="yaVa793RjvjRcYHjHZCJ-4" target="yaVa793RjvjRcYHjHZCJ-1">
          <mxGeometry width="50" height="50" relative="1" as="geometry">
            <mxPoint x="740" y="180" as="sourcePoint" />
            <mxPoint x="790" y="130" as="targetPoint" />
          </mxGeometry>
        </mxCell>
        <mxCell id="yaVa793RjvjRcYHjHZCJ-14" value="p_characteristics" style="ellipse;shape=doubleEllipse;whiteSpace=wrap;html=1;fillColor=#DAE8FC;strokeColor=#6C8EBF;" vertex="1" parent="1">
          <mxGeometry x="422.5" y="480" width="140" height="40" as="geometry" />
        </mxCell>
        <mxCell id="yaVa793RjvjRcYHjHZCJ-15" value="p_circular (boolean)" style="ellipse;whiteSpace=wrap;html=1;fillColor=#DAE8FC;strokeColor=#6C8EBF;" vertex="1" parent="1">
          <mxGeometry x="460" y="415" width="92.5" height="40" as="geometry" />
        </mxCell>
        <mxCell id="yaVa793RjvjRcYHjHZCJ-16" value="p_swimming_area (boolean)" style="ellipse;whiteSpace=wrap;html=1;fillColor=#DAE8FC;strokeColor=#6C8EBF;" vertex="1" parent="1">
          <mxGeometry x="719.38" y="450" width="120" height="40" as="geometry" />
        </mxCell>
        <mxCell id="yaVa793RjvjRcYHjHZCJ-17" value="p_photographic_view (boolean)" style="ellipse;whiteSpace=wrap;html=1;fillColor=#DAE8FC;strokeColor=#6C8EBF;" vertex="1" parent="1">
          <mxGeometry x="685" y="600" width="133.75" height="40" as="geometry" />
        </mxCell>
        <mxCell id="yaVa793RjvjRcYHjHZCJ-18" value="p_climb_path (boolean)" style="ellipse;whiteSpace=wrap;html=1;fillColor=#DAE8FC;strokeColor=#6C8EBF;" vertex="1" parent="1">
          <mxGeometry x="565" y="400" width="120" height="40" as="geometry" />
        </mxCell>
        <mxCell id="yaVa793RjvjRcYHjHZCJ-19" value="p_kid_friendly (boolean)" style="ellipse;whiteSpace=wrap;html=1;fillColor=#DAE8FC;strokeColor=#6C8EBF;" vertex="1" parent="1">
          <mxGeometry x="726.25" y="500" width="120" height="40" as="geometry" />
        </mxCell>
        <mxCell id="yaVa793RjvjRcYHjHZCJ-20" value="p_will_not_get_wet (boolean)" style="ellipse;whiteSpace=wrap;html=1;fillColor=#DAE8FC;strokeColor=#6C8EBF;" vertex="1" parent="1">
          <mxGeometry x="422.5" y="560" width="130" height="40" as="geometry" />
        </mxCell>
        <mxCell id="yaVa793RjvjRcYHjHZCJ-21" value="" style="endArrow=none;html=1;rounded=0;entryX=1;entryY=0;entryDx=0;entryDy=0;exitX=0.5;exitY=1;exitDx=0;exitDy=0;" edge="1" parent="1" source="yaVa793RjvjRcYHjHZCJ-15" target="yaVa793RjvjRcYHjHZCJ-14">
          <mxGeometry width="50" height="50" relative="1" as="geometry">
            <mxPoint x="1256.5" y="440" as="sourcePoint" />
            <mxPoint x="1306.5" y="390" as="targetPoint" />
          </mxGeometry>
        </mxCell>
        <mxCell id="yaVa793RjvjRcYHjHZCJ-22" value="" style="endArrow=none;html=1;rounded=0;entryX=0;entryY=0.5;entryDx=0;entryDy=0;exitX=1;exitY=0.5;exitDx=0;exitDy=0;" edge="1" parent="1" source="yaVa793RjvjRcYHjHZCJ-14" target="yaVa793RjvjRcYHjHZCJ-16">
          <mxGeometry width="50" height="50" relative="1" as="geometry">
            <mxPoint x="1256.5" y="440" as="sourcePoint" />
            <mxPoint x="1306.5" y="390" as="targetPoint" />
          </mxGeometry>
        </mxCell>
        <mxCell id="yaVa793RjvjRcYHjHZCJ-23" value="" style="endArrow=none;html=1;rounded=0;entryX=1;entryY=0.5;entryDx=0;entryDy=0;exitX=0;exitY=0.5;exitDx=0;exitDy=0;" edge="1" parent="1" source="yaVa793RjvjRcYHjHZCJ-19" target="yaVa793RjvjRcYHjHZCJ-14">
          <mxGeometry width="50" height="50" relative="1" as="geometry">
            <mxPoint x="1256.5" y="440" as="sourcePoint" />
            <mxPoint x="1306.5" y="390" as="targetPoint" />
          </mxGeometry>
        </mxCell>
        <mxCell id="yaVa793RjvjRcYHjHZCJ-24" value="" style="endArrow=none;html=1;rounded=0;entryX=1;entryY=1;entryDx=0;entryDy=0;exitX=0.5;exitY=0;exitDx=0;exitDy=0;" edge="1" parent="1" source="yaVa793RjvjRcYHjHZCJ-20" target="yaVa793RjvjRcYHjHZCJ-14">
          <mxGeometry width="50" height="50" relative="1" as="geometry">
            <mxPoint x="1256.5" y="440" as="sourcePoint" />
            <mxPoint x="1306.5" y="390" as="targetPoint" />
          </mxGeometry>
        </mxCell>
        <mxCell id="yaVa793RjvjRcYHjHZCJ-25" value="" style="endArrow=none;html=1;rounded=0;entryX=1;entryY=0;entryDx=0;entryDy=0;exitX=0.5;exitY=1;exitDx=0;exitDy=0;" edge="1" parent="1" source="yaVa793RjvjRcYHjHZCJ-18" target="yaVa793RjvjRcYHjHZCJ-14">
          <mxGeometry width="50" height="50" relative="1" as="geometry">
            <mxPoint x="1256.5" y="440" as="sourcePoint" />
            <mxPoint x="1306.5" y="390" as="targetPoint" />
          </mxGeometry>
        </mxCell>
        <mxCell id="yaVa793RjvjRcYHjHZCJ-26" value="" style="endArrow=none;html=1;rounded=0;entryX=1;entryY=0.5;entryDx=0;entryDy=0;exitX=0;exitY=0;exitDx=0;exitDy=0;" edge="1" parent="1" source="yaVa793RjvjRcYHjHZCJ-17" target="yaVa793RjvjRcYHjHZCJ-14">
          <mxGeometry width="50" height="50" relative="1" as="geometry">
            <mxPoint x="1256.5" y="440" as="sourcePoint" />
            <mxPoint x="1306.5" y="390" as="targetPoint" />
          </mxGeometry>
        </mxCell>
        <mxCell id="yaVa793RjvjRcYHjHZCJ-40" value="rest_stop (boolean)" style="ellipse;whiteSpace=wrap;html=1;fillColor=#d5e8d4;strokeColor=#82b366;" vertex="1" parent="1">
          <mxGeometry x="685" y="30" width="120" height="40" as="geometry" />
        </mxCell>
        <mxCell id="yaVa793RjvjRcYHjHZCJ-41" value="pic-nic_area (boolean)" style="ellipse;whiteSpace=wrap;html=1;fillColor=#d5e8d4;strokeColor=#82b366;" vertex="1" parent="1">
          <mxGeometry x="712.5" y="180" width="120" height="40" as="geometry" />
        </mxCell>
        <mxCell id="yaVa793RjvjRcYHjHZCJ-42" value="pet_friendly (boolean)" style="ellipse;whiteSpace=wrap;html=1;fillColor=#d5e8d4;strokeColor=#82b366;" vertex="1" parent="1">
          <mxGeometry x="544" y="240" width="120" height="40" as="geometry" />
        </mxCell>
        <mxCell id="yaVa793RjvjRcYHjHZCJ-43" value="p_rest_stop (boolean)" style="ellipse;whiteSpace=wrap;html=1;fillColor=#DAE8FC;strokeColor=#6C8EBF;" vertex="1" parent="1">
          <mxGeometry x="698.75" y="400" width="133.75" height="40" as="geometry" />
        </mxCell>
        <mxCell id="yaVa793RjvjRcYHjHZCJ-44" value="p_pic-nic_area (boolean)" style="ellipse;whiteSpace=wrap;html=1;fillColor=#DAE8FC;strokeColor=#6C8EBF;" vertex="1" parent="1">
          <mxGeometry x="705.63" y="550" width="133.75" height="40" as="geometry" />
        </mxCell>
        <mxCell id="yaVa793RjvjRcYHjHZCJ-45" value="p_pet_friendly (boolean)" style="ellipse;whiteSpace=wrap;html=1;fillColor=#DAE8FC;strokeColor=#6C8EBF;" vertex="1" parent="1">
          <mxGeometry x="546.25" y="590" width="133.75" height="40" as="geometry" />
        </mxCell>
        <mxCell id="yaVa793RjvjRcYHjHZCJ-46" value="" style="endArrow=none;html=1;rounded=0;entryX=1;entryY=0.5;entryDx=0;entryDy=0;exitX=0;exitY=0.5;exitDx=0;exitDy=0;" edge="1" parent="1" source="yaVa793RjvjRcYHjHZCJ-44" target="yaVa793RjvjRcYHjHZCJ-14">
          <mxGeometry width="50" height="50" relative="1" as="geometry">
            <mxPoint x="620" y="670" as="sourcePoint" />
            <mxPoint x="670" y="620" as="targetPoint" />
          </mxGeometry>
        </mxCell>
        <mxCell id="yaVa793RjvjRcYHjHZCJ-47" value="" style="endArrow=none;html=1;rounded=0;entryX=1;entryY=1;entryDx=0;entryDy=0;exitX=0.5;exitY=0;exitDx=0;exitDy=0;" edge="1" parent="1" source="yaVa793RjvjRcYHjHZCJ-45" target="yaVa793RjvjRcYHjHZCJ-14">
          <mxGeometry width="50" height="50" relative="1" as="geometry">
            <mxPoint x="620" y="670" as="sourcePoint" />
            <mxPoint x="670" y="620" as="targetPoint" />
          </mxGeometry>
        </mxCell>
        <mxCell id="yaVa793RjvjRcYHjHZCJ-48" value="" style="endArrow=none;html=1;rounded=0;entryX=1;entryY=0.5;entryDx=0;entryDy=0;exitX=0;exitY=1;exitDx=0;exitDy=0;" edge="1" parent="1" source="yaVa793RjvjRcYHjHZCJ-43" target="yaVa793RjvjRcYHjHZCJ-14">
          <mxGeometry width="50" height="50" relative="1" as="geometry">
            <mxPoint x="620" y="670" as="sourcePoint" />
            <mxPoint x="670" y="620" as="targetPoint" />
          </mxGeometry>
        </mxCell>
        <mxCell id="yaVa793RjvjRcYHjHZCJ-49" value="" style="endArrow=none;html=1;rounded=0;entryX=1;entryY=0.5;entryDx=0;entryDy=0;exitX=0;exitY=0.5;exitDx=0;exitDy=0;" edge="1" parent="1" source="yaVa793RjvjRcYHjHZCJ-41" target="yaVa793RjvjRcYHjHZCJ-1">
          <mxGeometry width="50" height="50" relative="1" as="geometry">
            <mxPoint x="287.5" y="290" as="sourcePoint" />
            <mxPoint x="337.5" y="240" as="targetPoint" />
          </mxGeometry>
        </mxCell>
        <mxCell id="yaVa793RjvjRcYHjHZCJ-50" value="" style="endArrow=none;html=1;rounded=0;entryX=1;entryY=1;entryDx=0;entryDy=0;exitX=0.5;exitY=0;exitDx=0;exitDy=0;" edge="1" parent="1" source="yaVa793RjvjRcYHjHZCJ-42" target="yaVa793RjvjRcYHjHZCJ-1">
          <mxGeometry width="50" height="50" relative="1" as="geometry">
            <mxPoint x="287.5" y="290" as="sourcePoint" />
            <mxPoint x="337.5" y="240" as="targetPoint" />
          </mxGeometry>
        </mxCell>
        <mxCell id="yaVa793RjvjRcYHjHZCJ-51" value="" style="endArrow=none;html=1;rounded=0;entryX=1;entryY=0.5;entryDx=0;entryDy=0;exitX=0;exitY=1;exitDx=0;exitDy=0;" edge="1" parent="1" source="yaVa793RjvjRcYHjHZCJ-40" target="yaVa793RjvjRcYHjHZCJ-1">
          <mxGeometry width="50" height="50" relative="1" as="geometry">
            <mxPoint x="287.5" y="290" as="sourcePoint" />
            <mxPoint x="337.5" y="240" as="targetPoint" />
          </mxGeometry>
        </mxCell>
        <mxCell id="yaVa793RjvjRcYHjHZCJ-55" value="" style="endArrow=none;html=1;rounded=0;entryX=0;entryY=0.5;entryDx=0;entryDy=0;exitX=1;exitY=0;exitDx=0;exitDy=0;" edge="1" parent="1" source="VhhlfXbD_9GwfbsZCxs5-2" target="yaVa793RjvjRcYHjHZCJ-1">
          <mxGeometry width="50" height="50" relative="1" as="geometry">
            <mxPoint x="380" y="170" as="sourcePoint" />
            <mxPoint x="460" y="60" as="targetPoint" />
            <Array as="points" />
          </mxGeometry>
        </mxCell>
        <mxCell id="yaVa793RjvjRcYHjHZCJ-58" value="" style="endArrow=none;html=1;rounded=0;entryX=1;entryY=0.5;entryDx=0;entryDy=0;exitX=0;exitY=0.5;exitDx=0;exitDy=0;" edge="1" parent="1" source="yaVa793RjvjRcYHjHZCJ-14" target="VhhlfXbD_9GwfbsZCxs5-36">
          <mxGeometry width="50" height="50" relative="1" as="geometry">
            <mxPoint x="250" y="590" as="sourcePoint" />
            <mxPoint x="300" y="540" as="targetPoint" />
          </mxGeometry>
        </mxCell>
      </root>
    </mxGraphModel>
  </diagram>
</mxfile>
